<svg width="299" height="55" viewBox="0 0 299 55" fill="none" xmlns="http://www.w3.org/2000/svg">
<path d="M22 54.5L10.25 54.0312H0.6875L0.9375 50.5625C2.83333 50.5625 4.125 50.3125 4.8125 49.8125C6.04167 48.875 6.65625 47.3333 6.65625 45.1875V15.8125C6.65625 12.5 6.01042 10.5833 4.71875 10.0625C4.34375 9.89583 3.72917 9.8125 2.875 9.8125C2.02083 9.8125 1.3125 9.92708 0.75 10.1562L1.03125 6.1875H10.25C11.6667 6.14583 13.0417 6.09375 14.375 6.03125C17.9583 5.82292 20.8542 5.71875 23.0625 5.71875C25.2917 5.71875 27.4167 5.98958 29.4375 6.53125C31.4792 7.05208 33.1771 7.80208 34.5312 8.78125C37.2604 10.7604 38.625 13.5 38.625 17C38.625 19.7708 37.8021 22.1875 36.1562 24.25C34.8021 25.9375 32.9792 27.2396 30.6875 28.1562C34.5833 28.5104 37.5729 29.8125 39.6562 32.0625C41.5312 34.0625 42.4688 36.5521 42.4688 39.5312C42.4688 43.8854 40.7188 47.4271 37.2188 50.1562C33.4896 53.0521 28.4167 54.5 22 54.5ZM31.1562 17.625C31.1562 12.1042 27.5312 9.34375 20.2812 9.34375C17.8854 9.34375 16.25 9.4375 15.375 9.625L13.4375 10V27.2812H22.5312C27.0312 27.2812 29.75 25.4688 30.6875 21.8438C31 20.6354 31.1562 19.2292 31.1562 17.625ZM13.4375 30.9062L13.5 46.625C13.5 48.375 14.1354 49.5312 15.4062 50.0938C16.6146 50.6146 18.7604 50.875 21.8438 50.875C24.9271 50.875 27.2396 50.6146 28.7812 50.0938C30.3438 49.5521 31.5729 48.8021 32.4688 47.8438C34.0729 46.1562 34.875 43.5625 34.875 40.0625C34.875 36.5625 33.9479 34.1667 32.0938 32.875C30.1771 31.5417 26.5833 30.875 21.3125 30.875L13.4375 30.9062ZM90.3125 9.875C90.0208 9.79167 89.8125 9.75 89.6875 9.75C89.5833 9.75 89.2812 9.76042 88.7812 9.78125C88.2812 9.80208 87.7917 9.89583 87.3125 10.0625C86.8542 10.2083 86.3021 10.5 85.6562 10.9375C84.1771 12 82.4792 13.6354 80.5625 15.8438L69.3125 28.8125C72.375 30.9792 75.9688 34.5833 80.0938 39.625C81.1979 41 82.1354 42.25 82.9062 43.375C83.6979 44.4792 84.4375 45.4792 85.125 46.375C85.8125 47.25 86.4688 48 87.0938 48.625C88.3438 49.875 89.4062 50.5 90.2812 50.5C91.1771 50.5 91.9688 50.4062 92.6562 50.2188L92.5312 54H85.1875C82.8958 54 80.8021 52.8021 78.9062 50.4062C78.2604 49.5938 77.6562 48.7083 77.0938 47.75C75.4062 45 74.1667 43.0417 73.375 41.875L71.0312 38.5C68.3646 34.8333 66.1562 32.3229 64.4062 30.9688H61.5V44.625C61.5 46.7083 61.6354 48.0833 61.9062 48.75C62.4271 49.9583 63.3438 50.5625 64.6562 50.5625C65.5104 50.5625 66.5729 50.4167 67.8438 50.125L67.4375 54H49.5625L49.9375 50.5625C51.9583 50.5625 53.2604 50.1458 53.8438 49.3125C54.4271 48.4792 54.7188 46.5938 54.7188 43.6562V15.8125C54.7188 13.5625 54.5833 12.1146 54.3125 11.4688C54.0625 10.8021 53.7708 10.3646 53.4375 10.1562C53.1042 9.92708 52.7604 9.8125 52.4062 9.8125C52.0729 9.8125 51.7812 9.82292 51.5312 9.84375C51.2812 9.84375 51.0104 9.85417 50.7188 9.875L49.9062 9.9375C49.6354 9.95833 49.3958 9.97917 49.1875 10L49.75 6.1875H66.6562L66.1875 9.8125C64.3958 9.8125 63.2396 10.0833 62.7188 10.625C61.9062 11.5208 61.5 13.1458 61.5 15.5V27.375H63.6562C64.3646 27.375 64.9375 27.1979 65.375 26.8438L74.2188 16.6875C75.0729 15.6875 75.5938 15.0312 75.7812 14.7188C76.1771 14.0729 76.5208 13.5625 76.8125 13.1875C77.625 12.2292 78.0312 11.5521 78.0312 11.1562C78.0312 10.1146 77.4688 9.59375 76.3438 9.59375C75.3229 9.59375 74.375 9.6875 73.5 9.875L74.0312 6.1875H90.875L90.3125 9.875ZM110.188 49.4062C110.688 49.8854 111.24 50.1979 111.844 50.3438C112.448 50.4896 113.229 50.5625 114.188 50.5625C115.167 50.5625 116.417 50.3542 117.938 49.9375L117.562 54H97.375L97.7188 50.5938C99.5729 50.5938 100.865 50.0208 101.594 48.875C102.281 47.8125 102.625 46.0729 102.625 43.6562L102.594 15.25C102.594 12.75 102.49 11.2604 102.281 10.7812C102.094 10.3021 101.802 9.97917 101.406 9.8125C101.031 9.64583 100.469 9.5625 99.7188 9.5625C98.5729 9.5625 97.4688 9.67708 96.4062 9.90625L96.9688 6.1875H103.281C107.24 6.1875 110.073 6.125 111.781 6C114.719 5.8125 117.354 5.72917 119.688 5.75C122.042 5.77083 124.229 6.13542 126.25 6.84375C128.271 7.55208 129.906 8.53125 131.156 9.78125C133.552 12.1562 134.75 15.4896 134.75 19.7812C134.75 24.4062 133.094 28.1771 129.781 31.0938C126.594 33.9271 122.583 35.3438 117.75 35.3438C115.854 35.3438 113.938 35.0833 112 34.5625L111.406 30.9062C113.24 31.3229 114.927 31.5312 116.469 31.5312C118.031 31.5312 119.521 31.2708 120.938 30.75C122.354 30.2292 123.552 29.4792 124.531 28.5C126.573 26.5 127.594 23.7292 127.594 20.1875C127.594 12.8958 123.5 9.25 115.312 9.25C113.396 9.25 111.448 9.44792 109.469 9.84375V45.8438C109.469 47.7188 109.708 48.9062 110.188 49.4062ZM149.062 21.8438C153.5 18.0938 157.938 16.2188 162.375 16.2188C167 16.2188 170.073 18.2917 171.594 22.4375C172.094 23.8333 172.344 25.4167 172.344 27.1875C172.344 28.9583 172.312 30.6771 172.25 32.3438C172.188 34.0104 172.115 35.6875 172.031 37.375C171.677 44.5208 171.583 48.4062 171.75 49.0312C171.917 49.6354 172.094 50.0417 172.281 50.25C172.76 50.7917 174.208 50.8229 176.625 50.3438L176.25 54H160.219L160.656 50.6875C163.094 50.6875 164.583 49.8125 165.125 48.0625C165.646 46.2083 165.927 43.875 165.969 41.0625C166.031 38.25 166.062 36.1354 166.062 34.7188C166.062 33.2812 166.042 32.1354 166 31.2812C165.979 30.4062 165.906 29.5417 165.781 28.6875C165.677 27.8125 165.49 26.9688 165.219 26.1562C164.969 25.3229 164.615 24.5938 164.156 23.9688C163.156 22.5729 161.74 21.875 159.906 21.875C156.927 21.875 153.969 22.7708 151.031 24.5625L149.062 25.7188V47.5C149.062 48.7708 149.219 49.5833 149.531 49.9375C149.99 50.4375 150.5 50.6875 151.062 50.6875C152.604 50.6875 153.812 50.5729 154.688 50.3438L154.188 54H137.906L138.406 50.6875C140.344 50.6875 141.594 50.1042 142.156 48.9375C142.594 48 142.812 45.9688 142.812 42.8438V11.3438C142.812 9.19792 142.531 7.78125 141.969 7.09375C141.323 6.44792 139.875 6.125 137.625 6.125H136.844L137.219 2.5625L149.75 0.71875C149.292 2.71875 149.062 8.03125 149.062 16.6562V21.8438ZM182.375 35.125C182.375 32.3125 182.896 29.7292 183.938 27.375C184.979 25 186.375 22.9792 188.125 21.3125C191.729 17.9167 196.156 16.2188 201.406 16.2188C206.49 16.2188 210.521 17.9062 213.5 21.2812C216.354 24.5104 217.781 28.7188 217.781 33.9062C217.781 39.8021 215.927 44.7292 212.219 48.6875C208.573 52.5417 204.083 54.4688 198.75 54.4688C193.5 54.4688 189.406 52.6042 186.469 48.875C183.74 45.4375 182.375 40.8542 182.375 35.125ZM200.156 50.5C201.74 50.5 203.135 50.2188 204.344 49.6562C205.573 49.0938 206.635 48.2292 207.531 47.0625C209.49 44.5833 210.469 41 210.469 36.3125C210.469 31.3125 209.51 27.3438 207.594 24.4062C205.656 21.4688 203.021 20 199.688 20C196.75 20 194.365 21.1458 192.531 23.4375C190.51 25.9583 189.5 29.5729 189.5 34.2812C189.5 39.1771 190.448 43.0833 192.344 46C194.281 49 196.885 50.5 200.156 50.5ZM224.75 50.6875C226.479 50.6875 227.635 50.25 228.219 49.375C228.885 48.375 229.219 46.3125 229.219 43.1875V28.0938C229.219 25.5938 228.917 23.9375 228.312 23.125C227.708 22.2917 226.312 21.875 224.125 21.875L224.625 17.9375L235.812 16.25C235.583 17.9375 235.469 19.7292 235.469 21.625C238.135 19.4375 240.927 17.8542 243.844 16.875C245.094 16.4375 246.385 16.2188 247.719 16.2188C249.052 16.2188 250.344 16.4167 251.594 16.8125C252.865 17.2083 253.969 17.8542 254.906 18.75C256.969 20.6875 258 23.5729 258 27.4062C258 29.7396 257.927 32.0208 257.781 34.25C257.385 40.9375 257.26 45.0104 257.406 46.4688C257.573 47.9271 257.76 48.8958 257.969 49.375C258.365 50.25 259.073 50.6875 260.094 50.6875C261.073 50.6875 261.958 50.5625 262.75 50.3125L262.281 54H246.281L246.844 50.6875C248.573 50.6875 249.76 50.3125 250.406 49.5625C250.677 49.25 250.875 48.8229 251 48.2812C251.146 47.7188 251.26 47.0104 251.344 46.1562C251.448 45.3021 251.531 44.2708 251.594 43.0625C251.719 40.6042 251.781 37.8229 251.781 34.7188C251.781 31.5938 251.719 29.3229 251.594 27.9062C251.49 26.4688 251.219 25.3125 250.781 24.4375C249.948 22.7292 248.115 21.875 245.281 21.875C242.656 21.875 239.885 22.7708 236.969 24.5625L235.469 25.4688V46.4688C235.469 48.3438 235.615 49.4792 235.906 49.875C236.198 50.2708 236.531 50.5104 236.906 50.5938C237.281 50.6562 237.698 50.6875 238.156 50.6875C239.219 50.6875 240.208 50.5729 241.125 50.3438L240.594 54H224.25L224.75 50.6875ZM285.219 49.125C289.344 48.8542 292.979 47.8646 296.125 46.1562L297.5 48.7812C294.354 51.3854 290.771 53.1667 286.75 54.125C285.542 54.3958 284.438 54.5312 283.438 54.5312C275.583 54.5312 270.635 51.0625 268.594 44.125C267.927 41.8958 267.594 39.3021 267.594 36.3438C267.594 33.3646 268.073 30.625 269.031 28.125C270.01 25.625 271.292 23.5 272.875 21.75C274.479 19.9792 276.312 18.6146 278.375 17.6562C280.438 16.6979 282.573 16.2188 284.781 16.2188C293.635 16.2188 298.062 21.2812 298.062 31.4062V31.7188C298.062 34.3646 297.75 35.6875 297.125 35.6875H274.125C274.125 40.0417 275.083 43.3542 277 45.625C278.938 47.8958 281.677 49.0625 285.219 49.125ZM290.938 31.6875C290.958 31.25 290.969 30.9167 290.969 30.6875V29.6562C290.969 24.7604 289.615 21.75 286.906 20.625C285.927 20.2083 284.875 20 283.75 20C282.646 20 281.708 20.1667 280.938 20.5C280.167 20.8333 279.438 21.2917 278.75 21.875C278.083 22.4583 277.469 23.1458 276.906 23.9375C276.344 24.7083 275.854 25.5625 275.438 26.5C274.562 28.4375 274.125 30.4167 274.125 32.4375L290.938 31.6875Z" fill="#ECECEC"/>
</svg>
